# xmcd
#
# Track frame offsets:
#	150
#	19201
#	32003
#	43745
#	54688
#	70084
#	87773
#	100736
#	111362
#	130562
#	148686
#	163874
#
# Disc length: 2358 seconds
#
# Revision: 0
# Processed by: cddbd v1.5.2PL0 Copyright (c) Steve Scherf et al.
# Submitted via: EasyCDDAExtractor 16.0.1.1
#
DISCID=a109340c
DTITLE=Rory Allen - If She Only Knew
DYEAR=2009
DGENRE=Country
TTITLE0=How Do We Go Back To Being Friends
TTITLE1=In The Ghetto
TTITLE2=Fever
TTITLE3=Shoppin' Around
TTITLE4=What's Your Name
TTITLE5=The Way
TTITLE6=Two Margaritas
TTITLE7=Baby Leave My Heart Alone
TTITLE8=If She Only Knew
TTITLE9=The Right Way
TTITLE10=Where Could I Go [But To The Lord]
TTITLE11=Dos Margaritas [Bonus Track]
EXTD=
EXTT0=
EXTT1=
EXTT2=
EXTT3=
EXTT4=
EXTT5=
EXTT6=
EXTT7=
EXTT8=
EXTT9=
EXTT10=
EXTT11=
PLAYORDER=
